<mxfile host="app.diagrams.net" modified="2021-11-04T16:41:21.717Z" agent="5.0 (Windows NT 10.0; Win64; x64) AppleWebKit/537.36 (KHTML, like Gecko) Chrome/94.0.4606.114 Safari/537.36" etag="2f2mITfZG9Fsr-lf4lD4" version="14.7.2" type="github">
  <diagram name="Page-1" id="e7e014a7-5840-1c2e-5031-d8a46d1fe8dd">
    <mxGraphModel dx="1086" dy="630" grid="1" gridSize="10" guides="1" tooltips="1" connect="1" arrows="1" fold="1" page="1" pageScale="1" pageWidth="1169" pageHeight="826" background="none" math="0" shadow="0">
      <root>
        <mxCell id="0" />
        <mxCell id="1" parent="0" />
        <mxCell id="mwHB-3XfCXLrKgQkaLSK-41" value="" style="rounded=1;whiteSpace=wrap;html=1;strokeColor=#000000;arcSize=13;" parent="1" vertex="1">
          <mxGeometry x="210" y="118" width="710" height="692" as="geometry" />
        </mxCell>
        <mxCell id="mwHB-3XfCXLrKgQkaLSK-42" value="&lt;h1&gt;Создание заявки&lt;/h1&gt;" style="text;html=1;strokeColor=none;fillColor=none;spacing=5;spacingTop=-20;whiteSpace=wrap;overflow=hidden;rounded=0;" parent="1" vertex="1">
          <mxGeometry x="280" y="120" width="260" height="40" as="geometry" />
        </mxCell>
        <mxCell id="mwHB-3XfCXLrKgQkaLSK-43" value="предусловие: пользователь имеет права на создание хотя бы одного типа заявок" style="text;html=1;strokeColor=none;fillColor=none;align=left;verticalAlign=middle;whiteSpace=wrap;rounded=0;fontSize=14;" parent="1" vertex="1">
          <mxGeometry x="260" y="160" width="430" height="30" as="geometry" />
        </mxCell>
        <mxCell id="mwHB-3XfCXLrKgQkaLSK-45" style="edgeStyle=orthogonalEdgeStyle;rounded=0;orthogonalLoop=1;jettySize=auto;html=1;fontSize=14;strokeColor=#000000;endArrow=classic;endFill=1;startSize=6;endSize=6;" parent="1" source="mwHB-3XfCXLrKgQkaLSK-46" target="mwHB-3XfCXLrKgQkaLSK-48" edge="1">
          <mxGeometry relative="1" as="geometry" />
        </mxCell>
        <mxCell id="mwHB-3XfCXLrKgQkaLSK-46" value="" style="ellipse;whiteSpace=wrap;html=1;aspect=fixed;fontSize=14;strokeColor=#000000;align=left;fillColor=#000000;" parent="1" vertex="1">
          <mxGeometry x="422.5" y="209" width="25" height="25" as="geometry" />
        </mxCell>
        <mxCell id="mwHB-3XfCXLrKgQkaLSK-47" style="edgeStyle=orthogonalEdgeStyle;rounded=0;orthogonalLoop=1;jettySize=auto;html=1;fontSize=14;endArrow=classicThin;endFill=1;startSize=6;endSize=6;strokeColor=#000000;" parent="1" source="mwHB-3XfCXLrKgQkaLSK-48" target="mwHB-3XfCXLrKgQkaLSK-50" edge="1">
          <mxGeometry relative="1" as="geometry" />
        </mxCell>
        <mxCell id="mwHB-3XfCXLrKgQkaLSK-48" value="Пользователь запрашивает создание заявки" style="rounded=1;whiteSpace=wrap;html=1;fontSize=14;strokeColor=#000000;align=center;" parent="1" vertex="1">
          <mxGeometry x="286.01" y="259" width="298.75" height="40" as="geometry" />
        </mxCell>
        <mxCell id="mwHB-3XfCXLrKgQkaLSK-49" value="Нет" style="edgeStyle=orthogonalEdgeStyle;rounded=0;orthogonalLoop=1;jettySize=auto;html=1;fontSize=14;endArrow=open;endFill=0;startSize=6;endSize=6;strokeColor=#000000;entryX=0;entryY=0.5;entryDx=0;entryDy=0;exitX=1;exitY=0.5;exitDx=0;exitDy=0;" parent="1" source="ra2lFWm42DTsMH0rehSS-3" target="ra2lFWm42DTsMH0rehSS-1" edge="1">
          <mxGeometry relative="1" as="geometry" />
        </mxCell>
        <mxCell id="ra2lFWm42DTsMH0rehSS-4" style="edgeStyle=orthogonalEdgeStyle;rounded=0;orthogonalLoop=1;jettySize=auto;html=1;exitX=0.5;exitY=1;exitDx=0;exitDy=0;entryX=0.5;entryY=0;entryDx=0;entryDy=0;" edge="1" parent="1" source="mwHB-3XfCXLrKgQkaLSK-50" target="ra2lFWm42DTsMH0rehSS-3">
          <mxGeometry relative="1" as="geometry" />
        </mxCell>
        <mxCell id="mwHB-3XfCXLrKgQkaLSK-50" value="Система проверяет права пользователя" style="rounded=1;whiteSpace=wrap;html=1;fontSize=14;strokeColor=#000000;align=center;" parent="1" vertex="1">
          <mxGeometry x="296.63" y="329" width="277.5" height="37" as="geometry" />
        </mxCell>
        <mxCell id="mwHB-3XfCXLrKgQkaLSK-51" style="edgeStyle=orthogonalEdgeStyle;rounded=0;orthogonalLoop=1;jettySize=auto;html=1;fontSize=14;endArrow=classic;endFill=1;startSize=6;endSize=6;strokeColor=#000000;" parent="1" source="mwHB-3XfCXLrKgQkaLSK-52" target="mwHB-3XfCXLrKgQkaLSK-56" edge="1">
          <mxGeometry relative="1" as="geometry">
            <mxPoint x="435" y="567" as="targetPoint" />
          </mxGeometry>
        </mxCell>
        <mxCell id="mwHB-3XfCXLrKgQkaLSK-52" value="Пользователь заполняет шаблон заявки" style="rounded=1;whiteSpace=wrap;html=1;fontSize=14;strokeColor=#000000;align=center;spacingTop=0;spacingBottom=0;spacing=2;" parent="1" vertex="1">
          <mxGeometry x="296.25" y="517" width="277.5" height="40" as="geometry" />
        </mxCell>
        <mxCell id="ra2lFWm42DTsMH0rehSS-13" style="edgeStyle=orthogonalEdgeStyle;rounded=0;orthogonalLoop=1;jettySize=auto;html=1;exitX=0.5;exitY=1;exitDx=0;exitDy=0;fontSize=14;endArrow=classic;endFill=1;endSize=6;" edge="1" parent="1" source="mwHB-3XfCXLrKgQkaLSK-56" target="ra2lFWm42DTsMH0rehSS-12">
          <mxGeometry relative="1" as="geometry" />
        </mxCell>
        <mxCell id="mwHB-3XfCXLrKgQkaLSK-56" value="Пользователь утверждает создание заявки" style="rounded=1;whiteSpace=wrap;html=1;fontSize=14;strokeColor=#000000;align=center;" parent="1" vertex="1">
          <mxGeometry x="322.5" y="589" width="225" height="38" as="geometry" />
        </mxCell>
        <mxCell id="mwHB-3XfCXLrKgQkaLSK-57" value="" style="ellipse;html=1;shape=endState;fillColor=#000000;strokeColor=#000000;fontSize=14;align=center;" parent="1" vertex="1">
          <mxGeometry x="420" y="730" width="30" height="30" as="geometry" />
        </mxCell>
        <mxCell id="ra2lFWm42DTsMH0rehSS-11" style="edgeStyle=orthogonalEdgeStyle;rounded=0;orthogonalLoop=1;jettySize=auto;html=1;entryX=1;entryY=0.5;entryDx=0;entryDy=0;fontSize=14;" edge="1" parent="1" source="ra2lFWm42DTsMH0rehSS-1" target="mwHB-3XfCXLrKgQkaLSK-57">
          <mxGeometry relative="1" as="geometry">
            <Array as="points">
              <mxPoint x="760" y="745" />
            </Array>
          </mxGeometry>
        </mxCell>
        <mxCell id="ra2lFWm42DTsMH0rehSS-1" value="Система выдает пользователю сообщение об ошибке" style="rounded=1;whiteSpace=wrap;html=1;fontSize=14;strokeColor=#000000;align=center;" vertex="1" parent="1">
          <mxGeometry x="630" y="380" width="260" height="45" as="geometry" />
        </mxCell>
        <mxCell id="ra2lFWm42DTsMH0rehSS-2" style="edgeStyle=orthogonalEdgeStyle;rounded=0;orthogonalLoop=1;jettySize=auto;html=1;exitX=0;exitY=1;exitDx=0;exitDy=0;entryX=0;entryY=0;entryDx=0;entryDy=0;" edge="1" parent="1" source="mwHB-3XfCXLrKgQkaLSK-46" target="mwHB-3XfCXLrKgQkaLSK-46">
          <mxGeometry relative="1" as="geometry" />
        </mxCell>
        <mxCell id="ra2lFWm42DTsMH0rehSS-7" value="Да" style="edgeStyle=orthogonalEdgeStyle;rounded=0;orthogonalLoop=1;jettySize=auto;html=1;exitX=0.5;exitY=1;exitDx=0;exitDy=0;entryX=0.5;entryY=0;entryDx=0;entryDy=0;fontSize=14;" edge="1" parent="1" source="ra2lFWm42DTsMH0rehSS-3" target="ra2lFWm42DTsMH0rehSS-6">
          <mxGeometry x="-0.2498" relative="1" as="geometry">
            <mxPoint as="offset" />
          </mxGeometry>
        </mxCell>
        <mxCell id="ra2lFWm42DTsMH0rehSS-3" value="" style="rhombus;whiteSpace=wrap;html=1;" vertex="1" parent="1">
          <mxGeometry x="425.39" y="387" width="20" height="30" as="geometry" />
        </mxCell>
        <mxCell id="ra2lFWm42DTsMH0rehSS-8" style="edgeStyle=orthogonalEdgeStyle;rounded=0;orthogonalLoop=1;jettySize=auto;html=1;exitX=0.5;exitY=1;exitDx=0;exitDy=0;endArrow=classic;endFill=1;endSize=6;" edge="1" parent="1" source="ra2lFWm42DTsMH0rehSS-6" target="mwHB-3XfCXLrKgQkaLSK-52">
          <mxGeometry relative="1" as="geometry" />
        </mxCell>
        <mxCell id="ra2lFWm42DTsMH0rehSS-6" value="Система выдает пользователю шаблон заявки" style="rounded=1;whiteSpace=wrap;html=1;fontSize=14;strokeColor=#000000;align=center;spacingTop=0;spacingBottom=0;spacing=2;" vertex="1" parent="1">
          <mxGeometry x="273.13" y="449" width="323.75" height="40" as="geometry" />
        </mxCell>
        <mxCell id="ra2lFWm42DTsMH0rehSS-9" value="Достаточно прав?" style="text;html=1;strokeColor=none;fillColor=none;align=center;verticalAlign=middle;whiteSpace=wrap;rounded=0;fontSize=14;" vertex="1" parent="1">
          <mxGeometry x="270" y="392.5" width="136.63" height="20" as="geometry" />
        </mxCell>
        <mxCell id="ra2lFWm42DTsMH0rehSS-14" style="edgeStyle=orthogonalEdgeStyle;rounded=0;orthogonalLoop=1;jettySize=auto;html=1;exitX=0.5;exitY=1;exitDx=0;exitDy=0;fontSize=14;endArrow=classic;endFill=1;endSize=6;" edge="1" parent="1" source="ra2lFWm42DTsMH0rehSS-12" target="mwHB-3XfCXLrKgQkaLSK-57">
          <mxGeometry relative="1" as="geometry" />
        </mxCell>
        <mxCell id="ra2lFWm42DTsMH0rehSS-12" value="Система создает заявку" style="rounded=1;whiteSpace=wrap;html=1;fontSize=14;strokeColor=#000000;align=center;" vertex="1" parent="1">
          <mxGeometry x="322.5" y="660" width="225" height="38" as="geometry" />
        </mxCell>
      </root>
    </mxGraphModel>
  </diagram>
</mxfile>
